<svg xmlns="http://www.w3.org/2000/svg" viewBox="0 0 13.48 13.48"><path fill="lightgrey" d="M13.48 6.74A6.74 6.74 0 1 1 6.739 0a6.74 6.74 0 0 1 6.741 6.74zM3.238 6.409a9.582 9.582 0 0 1 .47-2.682l-2.252-.002a6.043 6.043 0 0 0-.79 2.684h2.572zm3.173-2.683H4.404a8.944 8.944 0 0 0-.508 2.683h2.515V3.726zm0-3.06a7.274 7.274 0 0 0-1.739 2.395h1.739V.666zM1.892 3.061h2.064c.348-.83.825-1.6 1.375-2.237-1.42.321-2.635 1.177-3.439 2.237zm10.922 3.348a6.043 6.043 0 0 0-.79-2.684l-2.252.003c.274.835.438 1.738.47 2.682h2.572zm-5.745 0h2.515a8.851 8.851 0 0 0-.508-2.683H7.069v2.683zm0-3.348h1.739A7.274 7.274 0 0 0 7.069.666v2.395zM8.149.824a8.463 8.463 0 0 1 1.375 2.237h2.064c-.804-1.06-2.02-1.916-3.439-2.237zM.666 7.071c.052.973.333 1.885.79 2.684l2.252-.002a9.66 9.66 0 0 1-.47-2.682H.666zm5.745 0H3.896c.034.945.209 1.846.508 2.684h2.007V7.071zm0 3.348H4.672a7.278 7.278 0 0 0 1.739 2.396v-2.396zm-1.08 2.238a8.479 8.479 0 0 1-1.375-2.237H1.892c.804 1.06 2.019 1.916 3.439 2.237zm4.911-5.586a9.588 9.588 0 0 1-.47 2.682l2.252.002c.457-.799.738-1.71.789-2.684h-2.571zM7.069 9.755h2.007a8.895 8.895 0 0 0 .509-2.684H7.069v2.684zm0 3.06a7.254 7.254 0 0 0 1.739-2.396H7.069v2.396zm4.52-2.396H9.524c-.348.83-.825 1.6-1.375 2.237 1.419-.32 2.635-1.176 3.44-2.237z"/></svg>