<svg viewBox="0 0 22 19" xmlns="http://www.w3.org/2000/svg">
	<path fill="#FDB71B" d="M4.1 13.2c2 .6 3.3 2 3.3 2s-1.9.6-3.9 0-3.3-2-3.3-2 1.9-.5 3.9 0zM2.9 9c1.2 1.5 1.5 3.4 1.5 3.4s-1.7-.6-2.9-2.2S0 6.8 0 6.8s1.7.7 2.9 2.2zM4 4.8c.2 1.7-.4 3.1-.4 3.1S2.6 6.7 2.3 5c-.2-1.7.5-3.1.5-3.1S3.7 3.1 4 4.8zM6.9 3c-.5 1.5-1.6 2.5-1.6 2.5s-.3-1.5.1-3C5.9 1.1 7 0 7 0s.4 1.5-.1 3zm.3 13.4c1.9-.3 3.4.3 3.4.3s-1.4 1-3.2 1.3c-1.9.3-3.4-.3-3.4-.3s1.3-1 3.2-1.3zm10.7-3.2c-2 .6-3.3 2-3.3 2s1.9.6 3.9 0 3.3-2 3.3-2-1.9-.5-3.9 0zM19.1 9c-1.2 1.5-1.5 3.4-1.5 3.4s1.7-.6 2.9-2.2S22 6.8 22 6.8s-1.7.7-2.9 2.2zM18 4.8c-.2 1.7.4 3.1.4 3.1s1-1.2 1.2-2.9c.3-1.7-.4-3.1-.4-3.1s-.9 1.2-1.2 2.9zM15.1 3c.5 1.5 1.6 2.5 1.6 2.5s.3-1.5-.1-3C16.1 1.1 15 0 15 0s-.4 1.5.1 3zm-.3 13.4c-1.9-.3-3.4.3-3.4.3s1.4 1 3.2 1.3c1.9.3 3.4-.3 3.4-.3s-1.3-1-3.2-1.3zM11 2.7L12.4 7H17l-3.7 2.7 1.4 4.3-3.7-2.6L7.3 14l1.4-4.3L5 7h4.6z"/>
</svg>